PathFileType	4	(X/Y/Z)	S01_0017_Gait_markers.trc
DataRate	CameraRate	NumFrames	NumMarkers	Units	OrigDataRate	OrigDataStartFrame	OrigNumFrames
250.000000	250.000000	4	54	mm	250.000000	136	364
Frame#	Time	HEAD_ANT			R_HEAD			L_HEAD			C7			R_BACK			L_BACK			STERNUM			R_ACROMION			R_HUM_PROX			R_HUM_ANT			R_HUM_POST			R_ELBOW_LAT			R_ELBOW_MED			R_FOREARM			R_WIRST_LAT			R_WRITS_MED			R_HAND			L_ACROMION			L_HUM_PROX			L_HUM_ANT			L_HUM_POST			L_ELBOW_LAT			L_ELBOW_MED			L_FOREARM			L_WRIST_LAT			L_WIRST_MED			L_HAND			R_ILIAC			SACRUM			L_ILIAC			R_GTROCH			R_THIGH__1			R_THIGH_2			R_THIGH_3			R_THIGH_4			R_SHANK_1			R_SHANK_2			R_SHANK_3			R_SHANK_4			R_HEEL			R_FOOT_LAT			R_FOOT_MED			L_GTROCH			L_THIGH_1			L_THIGH_2			L_THIGH_3			L_THIGH_4			L_SHANK_1			L_SHANK_2			L_SHANK_3			L_SHANK_4			L_HEEL			L_FOOT_LAT			L_FOOT_MED			
		X1	Y1	Z1	X2	Y2	Z2	X3	Y3	Z3	X4	Y4	Z4	X5	Y5	Z5	X6	Y6	Z6	X7	Y7	Z7	X8	Y8	Z8	X9	Y9	Z9	X10	Y10	Z10	X11	Y11	Z11	X12	Y12	Z12	X13	Y13	Z13	X14	Y14	Z14	X15	Y15	Z15	X16	Y16	Z16	X17	Y17	Z17	X18	Y18	Z18	X19	Y19	Z19	X20	Y20	Z20	X21	Y21	Z21	X22	Y22	Z22	X23	Y23	Z23	X24	Y24	Z24	X25	Y25	Z25	X26	Y26	Z26	X27	Y27	Z27	X28	Y28	Z28	X29	Y29	Z29	X30	Y30	Z30	X31	Y31	Z31	X32	Y32	Z32	X33	Y33	Z33	X34	Y34	Z34	X35	Y35	Z35	X36	Y36	Z36	X37	Y37	Z37	X38	Y38	Z38	X39	Y39	Z39	X40	Y40	Z40	X41	Y41	Z41	X42	Y42	Z42	X43	Y43	Z43	X44	Y44	Z44	X45	Y45	Z45	X46	Y46	Z46	X47	Y47	Z47	X48	Y48	Z48	X49	Y49	Z49	X50	Y50	Z50	X51	Y51	Z51	X52	Y52	Z52	X53	Y53	Z53	X54	Y54	Z54	

137	0.544	792.3900146484375	1744.52001953125	-331.7537841796871	735.4402465820312	1692.5537109375	-253.4687805175778	732.1408081054688	1696.808715820312	-401.2930297851559	595.1199340820312	1524.4609375	-331.1777343749997	523.2559204101562	1330.076049804688	-261.1824951171872	520.2051391601562	1333.081420898438	-403.554016113281	769.49609375	1360.265869140625	-333.9139404296872	673.525146484375	1475.175048828125	-160.6705780029293	645.2596435546875	1313.91259765625	-69.58247375488251	711.99755859375	1232.259033203125	-71.17239379882785	591.3468627929688	1227.1953125	-54.17431259155246	645.1741333007812	1123.626342773438	-52.34646987915014	616.0966796875	1118.694458007812	-131.5301361083982	782.9780883789062	965.777587890625	-70.01584625244119	834.0122680664062	913.1162109375	-115.8611984252928	774.0045166015625	872.4947509765625	-76.01694488525371	859.940673828125	827.0946044921875	-64.41078948974591	672.6563110351562	1482.901733398438	-499.1128234863278	638.78466796875	1318.9921875	-597.1349487304684	696.487060546875	1234.809448242188	-601.2589721679685	574.3948974609375	1245.1318359375	-619.8776245117185	624.9279174804688	1138.357543945313	-632.7479858398435	576.2443237304688	1133.6728515625	-572.8579101562498	725.4396362304688	958.9824218750001	-624.1854858398435	759.8400268554688	896.3998413085939	-574.7849121093748	709.339111328125	877.5722656250001	-636.0934448242185	784.7493896484375	818.3169555664064	-625.8760986328123	653.8499145507812	1075.678466796875	-165.9553985595701	530.2677612304688	1046.875610351562	-340.6087951660154	652.36767578125	1072.918212890625	-509.8099670410154	596.72607421875	934.1087036132812	-156.4534301757811	582.2202758789062	659.3763427734375	-186.1036987304686	640.6845703125	665.0940551757812	-180.3711547851561	627.2604370117188	564.8953857421875	-217.8403778076171	564.8819580078125	581.2145385742188	-209.7062530517577	495.3319396972656	358.3994445800782	-219.3446655273437	545.1900634765625	327.7191162109376	-234.6424713134765	524.3097534179688	247.0518798828126	-257.2772827148437	463.470703125	265.4895324707032	-248.000991821289	385.2192993164062	71.9140930175782	-344.1864013671875	535.451416015625	20.15044021606451	-248.7368927001953	601.018798828125	29.82275772094734	-344.4035339355469	633.6604614257812	957.2157592773439	-520.6856689453123	820.5393676757812	706.7885131835939	-504.5961303710936	765.0239868164062	705.5639648437501	-525.6683959960936	785.0462646484375	604.1286010742189	-498.2823791503905	843.2161254882812	628.3673706054689	-482.8111877441405	841.9130859375	351.3955078125001	-491.9078674316406	786.3319091796875	326.9111633300782	-493.6552734374999	788.1875610351562	240.6727752685548	-479.6486511230468	850.7704467773438	250.5828857421876	-471.7023620605468	762.2477416992188	48.62943267822275	-410.7296752929688	939.4428100585938	35.14459991455089	-476.3332214355469	971.5906372070312	54.90791702270516	-383.0379638671875	
138	0.548	797.6758422851562	1743.724487304688	-331.9557800292965	740.6285400390625	1691.715576171875	-253.9575805664059	737.4557495117188	1695.874755859375	-401.5705566406246	600.4576416015625	1523.7646484375	-331.4486694335934	528.142578125	1329.47265625	-261.3300170898435	525.1323852539062	1332.376220703125	-403.6718139648435	774.5305786132812	1359.32470703125	-333.8073425292966	678.796630859375	1474.2509765625	-160.8953857421872	650.7103271484375	1313.200439453125	-69.53246307373017	717.4215087890625	1231.5107421875	-71.2690124511716	596.8473510742188	1226.502319335938	-54.09025573730442	650.62109375	1122.9130859375	-52.05962753295874	621.5859375	1117.93505859375	-131.3002014160154	789.084228515625	965.4767456054688	-70.15206909179666	840.0740966796875	913.0667724609375	-116.1319122314451	780.5736694335938	871.96337890625	-76.22612762451152	866.6266479492188	827.139404296875	-64.722457885742	677.8601684570312	1481.973266601562	-499.2410278320309	643.682373046875	1318.112060546875	-597.1728515624997	701.2061157226562	1233.81689453125	-601.3756103515623	579.3289184570312	1244.298828125	-620.2984619140623	632.1370239257812	1136.423706054688	-631.8727416992185	581.2274169921875	1132.704711914063	-572.8441772460935	730.590576171875	958.0564575195314	-623.9628295898435	765.1633911132812	895.7755126953126	-575.4225463867185	714.5551147460938	876.7698974609376	-636.0390014648435	789.8548583984375	817.4904785156251	-625.443420410156	657.6605224609375	1074.521484375	-166.0556945800779	535.3279418945312	1046.006591796875	-341.2039489746091	657.4127197265625	1072.130493164062	-509.9181823730466	601.2186889648438	933.8282470703125	-156.7229919433592	585.0491943359375	659.6131591796875	-186.4235076904295	643.4562377929688	664.83740234375	-180.6784362792967	629.42919921875	564.6702880859375	-217.8475646972655	567.1781616210938	581.7374267578125	-209.5532379150389	496.5517578125	358.7478027343751	-219.7319946289062	546.2444458007812	327.9967956542969	-234.8122558593749	525.1353759765625	247.356918334961	-257.3857116699218	464.2697448730469	265.9668884277344	-248.2926483154296	385.4751586914062	72.6264953613282	-344.7355346679688	535.2537231445312	20.19147491455084	-248.9051055908203	601.1376342773438	29.76006507873543	-344.4468688964844	639.1414184570312	956.1309814453126	-520.8688354492185	825.0142211914062	705.3903808593751	-504.1293640136717	769.527099609375	704.2718505859376	-525.1426391601561	789.84716796875	602.8162231445314	-497.6286315917968	847.8060302734375	627.2889404296876	-482.3434753417968	850.6983642578125	351.0087280273439	-490.8472595214843	795.3433227539062	325.259490966797	-492.5674743652343	799.7125244140625	238.7832183837892	-477.5449829101562	862.0435180664062	250.4247283935548	-472.0772094726562	778.37255859375	46.6867218017579	-408.6860046386719	955.5416259765625	36.64839172363292	-475.5112915039062	987.5654907226562	57.07435989379891	-382.34375	
139	0.552	802.9920043945312	1742.877075195312	-332.2321472167965	746.0891723632812	1690.844116210938	-254.3194427490231	743.0418090820312	1694.984497070312	-402.0278930664059	605.5958251953125	1522.81494140625	-331.5983276367184	533.2927856445312	1328.766357421875	-261.3352050781247	530.0194091796875	1331.655883789062	-403.8176574707028	779.7234497070312	1358.151733398438	-334.7584533691403	684.1304931640625	1473.417114257812	-161.1558227539059	656.1527709960938	1312.504028320312	-69.75205993652314	722.92138671875	1230.755737304688	-71.51540374755832	602.366455078125	1225.623291015625	-54.02829360961887	656.252197265625	1122.085327148438	-52.19374847412085	626.9318237304688	1117.07421875	-131.2104492187497	795.3328857421875	965.1134033203125	-70.43988037109354	846.1425170898438	912.9580078125	-116.5076599121092	786.998779296875	871.87353515625	-76.64151763915996	873.2735595703125	827.1807861328125	-65.09915924072247	682.9822387695312	1480.99755859375	-499.5846252441403	648.8241577148438	1317.165283203125	-597.3796997070309	706.4489135742188	1232.798095703125	-601.5380859374998	584.4600830078125	1243.26513671875	-620.2543945312498	636.8898315429688	1135.465209960938	-632.0872802734373	586.173583984375	1131.813598632813	-572.8029785156248	735.504150390625	957.2503051757814	-624.1118164062498	770.1686401367188	895.1409301757814	-575.297668457031	719.6351928710938	875.8167724609376	-635.8393554687498	795.1712646484375	816.7109985351564	-625.3638916015623	661.7813110351562	1073.67919921875	-166.3557891845701	540.3665161132812	1044.994018554688	-341.538391113281	662.0908203125	1071.206909179688	-510.313781738281	605.6881103515625	933.4993286132812	-157.1044921874998	587.8536376953125	659.7650146484375	-186.8472442626952	646.2923583984375	664.4989624023438	-180.5581817626952	631.75830078125	564.541015625	-217.7803802490233	569.6015014648438	581.9434814453125	-209.9615783691405	497.6867980957031	359.0359191894532	-220.218765258789	547.3352661132812	328.1776733398438	-234.9339752197265	525.9931030273438	247.6561126708985	-257.5829772949218	465.1456298828125	266.4076843261719	-248.7646331787109	385.8378601074219	73.52315521240241	-345.2187805175781	535.0435791015625	20.30047035217291	-249.1111907958984	601.2942504882812	29.75015068054207	-344.4148864746094	644.4227294921875	955.0411376953126	-520.985656738281	829.3231811523438	704.0834960937501	-504.2044677734373	773.8505249023438	702.8669433593751	-525.1051025390624	793.98583984375	601.5092773437501	-497.0168457031249	852.3916015625	625.9798583984376	-481.5071716308593	859.4096069335938	350.5614318847657	-490.0793762207031	804.7586669921875	323.6199951171876	-491.3557434082031	810.792236328125	237.3080291748048	-476.4341735839843	872.957275390625	250.2856597900392	-471.0695800781249	794.168212890625	44.86456298828134	-407.4336547851562	971.2986450195312	38.45423889160167	-474.8986511230469	1003.308898925781	59.57462310791024	-381.8333740234375	
140	0.556	808.2984008789062	1741.818359375	-332.626800537109	751.4736328125	1689.892822265625	-254.4279785156246	748.3692016601562	1694.003295898438	-402.3358764648434	610.8141479492188	1521.939575195312	-331.8725891113278	538.2682495117188	1328.052490234375	-261.2750549316403	534.9979248046875	1330.9501953125	-404.0682678222653	784.8156127929688	1357.254028320312	-334.8543395996091	689.44091796875	1472.508544921875	-161.3585815429684	661.5894165039062	1311.620971679688	-69.7692108154294	728.4512939453125	1229.96435546875	-71.58621978759739	607.8711547851562	1224.769775390625	-54.10594558715793	661.7745971679688	1121.211547851562	-52.13494110107397	632.55859375	1116.0029296875	-131.2112884521482	801.4470825195312	964.855224609375	-70.60655975341776	852.3263549804688	912.7703247070312	-116.7758483886717	793.3323974609375	871.4987182617188	-76.92462921142558	879.9076538085938	827.2094116210938	-65.42488861083966	688.0513305664062	1480.069458007812	-499.7708740234372	653.7384643554688	1316.248779296875	-597.5453491210934	711.3790893554688	1231.741455078125	-601.5493164062498	589.300048828125	1242.313354492188	-620.4031982421873	639.7415161132812	1135.3291015625	-632.9535522460935	591.0848999023438	1130.991455078125	-572.944152832031	740.4874877929688	956.3381347656251	-624.082824707031	775.3724365234375	894.1903686523439	-574.9901123046873	724.9900512695312	874.7910766601564	-635.6025390624998	800.2839965820312	815.8752441406251	-624.9992675781248	666.5760498046875	1072.7021484375	-166.666793823242	545.5027465820312	1043.835693359375	-342.2508850097654	667.3551025390625	1070.269653320312	-510.5577087402341	610.3386840820312	933.1598510742188	-157.2724914550779	590.75830078125	659.8972778320312	-186.9421997070311	649.166748046875	664.492431640625	-180.4653472900389	634.2080078125	564.5361328125	-217.4532775878905	572.1028442382812	582.3089599609375	-210.0122833251952	498.8804016113281	359.4246520996094	-220.4169158935546	548.5021362304688	328.3271179199219	-235.0331726074218	526.8453979492188	247.8457489013672	-257.7317199707031	466.0943908691406	266.9340820312501	-249.2136077880859	386.1570434570312	74.28497314453132	-345.6678161621094	534.8367919921875	20.32995605468756	-249.3192138671875	601.4075317382812	29.71516990661629	-344.4029846191406	649.7302856445312	953.9572143554689	-521.1109619140623	834.0111694335938	702.6846313476564	-503.9120483398436	778.512451171875	701.2623291015626	-524.5910644531249	798.582275390625	600.0985107421876	-496.432403564453	856.9275512695312	624.9121093750001	-481.2278442382811	867.8135375976562	350.1361389160157	-489.1225585937499	813.6614379882812	322.1821594238282	-490.3216247558593	821.8837890625	235.8302459716798	-475.4185180664062	883.83837890625	250.1803588867189	-470.4604797363281	809.8309936523438	43.24674606323251	-406.1353759765625	986.7416381835938	40.39266967773448	-474.2771606445312	1018.753295898438	62.19516372680673	-381.2422180175781	
